<mxfile host="app.diagrams.net" modified="2022-03-17T00:44:26.685Z" agent="5.0 (Windows NT 10.0; Win64; x64) AppleWebKit/537.36 (KHTML, like Gecko) Chrome/99.0.4844.51 Safari/537.36" etag="J1joZyjEqpTZgA1qHU60" version="17.1.0" type="github">
  <diagram id="C5RBs43oDa-KdzZeNtuy" name="Page-1">
    <mxGraphModel dx="1038" dy="571" grid="1" gridSize="13" guides="1" tooltips="1" connect="1" arrows="1" fold="1" page="1" pageScale="1" pageWidth="827" pageHeight="1169" math="0" shadow="0">
      <root>
        <mxCell id="WIyWlLk6GJQsqaUBKTNV-0" />
        <mxCell id="WIyWlLk6GJQsqaUBKTNV-1" parent="WIyWlLk6GJQsqaUBKTNV-0" />
        <mxCell id="NkqkLdcEl6JzajYZbMns-0" value="&lt;h2&gt;InÃ­cio&lt;/h2&gt;" style="rounded=1;whiteSpace=wrap;html=1;" vertex="1" parent="WIyWlLk6GJQsqaUBKTNV-1">
          <mxGeometry x="60" y="30" width="120" height="60" as="geometry" />
        </mxCell>
        <mxCell id="NkqkLdcEl6JzajYZbMns-1" value="" style="endArrow=classic;html=1;rounded=0;" edge="1" parent="WIyWlLk6GJQsqaUBKTNV-1">
          <mxGeometry width="50" height="50" relative="1" as="geometry">
            <mxPoint x="120" y="90" as="sourcePoint" />
            <mxPoint x="119.5" y="150" as="targetPoint" />
            <Array as="points">
              <mxPoint x="119.5" y="100" />
            </Array>
          </mxGeometry>
        </mxCell>
        <mxCell id="NkqkLdcEl6JzajYZbMns-13" style="edgeStyle=orthogonalEdgeStyle;rounded=0;orthogonalLoop=1;jettySize=auto;html=1;fontSize=13;" edge="1" parent="WIyWlLk6GJQsqaUBKTNV-1" source="NkqkLdcEl6JzajYZbMns-3" target="NkqkLdcEl6JzajYZbMns-12">
          <mxGeometry relative="1" as="geometry" />
        </mxCell>
        <mxCell id="NkqkLdcEl6JzajYZbMns-3" value="&lt;b&gt;A= 21&lt;br&gt;B= 10&lt;br&gt;&lt;br&gt;&lt;/b&gt;" style="shape=parallelogram;perimeter=parallelogramPerimeter;whiteSpace=wrap;html=1;fixedSize=1;fontSize=13;" vertex="1" parent="WIyWlLk6GJQsqaUBKTNV-1">
          <mxGeometry x="50.25" y="156" width="139.5" height="60" as="geometry" />
        </mxCell>
        <mxCell id="NkqkLdcEl6JzajYZbMns-4" value="" style="endArrow=classic;html=1;rounded=0;" edge="1" parent="WIyWlLk6GJQsqaUBKTNV-1">
          <mxGeometry width="50" height="50" relative="1" as="geometry">
            <mxPoint x="120" y="90" as="sourcePoint" />
            <mxPoint x="119.5" y="150" as="targetPoint" />
            <Array as="points">
              <mxPoint x="119.5" y="100" />
            </Array>
          </mxGeometry>
        </mxCell>
        <mxCell id="NkqkLdcEl6JzajYZbMns-30" value="" style="edgeStyle=orthogonalEdgeStyle;rounded=0;orthogonalLoop=1;jettySize=auto;html=1;fontSize=13;" edge="1" parent="WIyWlLk6GJQsqaUBKTNV-1" source="NkqkLdcEl6JzajYZbMns-7" target="NkqkLdcEl6JzajYZbMns-28">
          <mxGeometry relative="1" as="geometry" />
        </mxCell>
        <mxCell id="NkqkLdcEl6JzajYZbMns-7" value="B" style="shape=document;whiteSpace=wrap;html=1;boundedLbl=1;fontSize=13;size=0.35;fontStyle=1" vertex="1" parent="WIyWlLk6GJQsqaUBKTNV-1">
          <mxGeometry x="400" y="364" width="120" height="80" as="geometry" />
        </mxCell>
        <mxCell id="NkqkLdcEl6JzajYZbMns-15" value="" style="edgeStyle=orthogonalEdgeStyle;rounded=0;orthogonalLoop=1;jettySize=auto;html=1;fontSize=13;" edge="1" parent="WIyWlLk6GJQsqaUBKTNV-1" source="NkqkLdcEl6JzajYZbMns-12" target="NkqkLdcEl6JzajYZbMns-14">
          <mxGeometry relative="1" as="geometry" />
        </mxCell>
        <mxCell id="NkqkLdcEl6JzajYZbMns-26" value="" style="edgeStyle=orthogonalEdgeStyle;rounded=0;orthogonalLoop=1;jettySize=auto;html=1;fontSize=13;" edge="1" parent="WIyWlLk6GJQsqaUBKTNV-1" source="NkqkLdcEl6JzajYZbMns-12" target="NkqkLdcEl6JzajYZbMns-25">
          <mxGeometry relative="1" as="geometry" />
        </mxCell>
        <mxCell id="NkqkLdcEl6JzajYZbMns-12" value="&lt;b&gt;A &amp;lt;&amp;gt; B&lt;br&gt;&lt;br&gt;&lt;/b&gt;" style="rhombus;whiteSpace=wrap;html=1;fontSize=13;" vertex="1" parent="WIyWlLk6GJQsqaUBKTNV-1">
          <mxGeometry x="260" y="247" width="80" height="80" as="geometry" />
        </mxCell>
        <mxCell id="NkqkLdcEl6JzajYZbMns-19" value="" style="edgeStyle=orthogonalEdgeStyle;rounded=0;orthogonalLoop=1;jettySize=auto;html=1;fontSize=13;" edge="1" parent="WIyWlLk6GJQsqaUBKTNV-1" source="NkqkLdcEl6JzajYZbMns-14" target="NkqkLdcEl6JzajYZbMns-18">
          <mxGeometry relative="1" as="geometry" />
        </mxCell>
        <mxCell id="NkqkLdcEl6JzajYZbMns-22" value="" style="edgeStyle=orthogonalEdgeStyle;rounded=0;orthogonalLoop=1;jettySize=auto;html=1;fontSize=13;" edge="1" parent="WIyWlLk6GJQsqaUBKTNV-1" source="NkqkLdcEl6JzajYZbMns-14" target="NkqkLdcEl6JzajYZbMns-7">
          <mxGeometry relative="1" as="geometry" />
        </mxCell>
        <mxCell id="NkqkLdcEl6JzajYZbMns-14" value="&lt;b&gt;A&amp;gt;B&lt;/b&gt;" style="rhombus;whiteSpace=wrap;html=1;fontSize=13;" vertex="1" parent="WIyWlLk6GJQsqaUBKTNV-1">
          <mxGeometry x="420" y="247" width="80" height="80" as="geometry" />
        </mxCell>
        <mxCell id="NkqkLdcEl6JzajYZbMns-29" value="" style="edgeStyle=orthogonalEdgeStyle;rounded=0;orthogonalLoop=1;jettySize=auto;html=1;fontSize=13;" edge="1" parent="WIyWlLk6GJQsqaUBKTNV-1" source="NkqkLdcEl6JzajYZbMns-18" target="NkqkLdcEl6JzajYZbMns-28">
          <mxGeometry relative="1" as="geometry" />
        </mxCell>
        <mxCell id="NkqkLdcEl6JzajYZbMns-18" value="A" style="shape=document;whiteSpace=wrap;html=1;boundedLbl=1;fontSize=13;fontStyle=1" vertex="1" parent="WIyWlLk6GJQsqaUBKTNV-1">
          <mxGeometry x="560" y="247" width="120" height="80" as="geometry" />
        </mxCell>
        <mxCell id="NkqkLdcEl6JzajYZbMns-20" value="&lt;b&gt;FIM&lt;/b&gt;" style="rounded=1;whiteSpace=wrap;html=1;fontSize=13;fontStyle=0;" vertex="1" parent="WIyWlLk6GJQsqaUBKTNV-1">
          <mxGeometry x="240" y="507" width="120" height="60" as="geometry" />
        </mxCell>
        <mxCell id="NkqkLdcEl6JzajYZbMns-27" value="" style="edgeStyle=orthogonalEdgeStyle;rounded=0;orthogonalLoop=1;jettySize=auto;html=1;fontSize=13;" edge="1" parent="WIyWlLk6GJQsqaUBKTNV-1" source="NkqkLdcEl6JzajYZbMns-25" target="NkqkLdcEl6JzajYZbMns-20">
          <mxGeometry relative="1" as="geometry" />
        </mxCell>
        <mxCell id="NkqkLdcEl6JzajYZbMns-25" value="&lt;b&gt;A = B&lt;/b&gt;" style="shape=document;whiteSpace=wrap;html=1;boundedLbl=1;fontSize=13;" vertex="1" parent="WIyWlLk6GJQsqaUBKTNV-1">
          <mxGeometry x="240" y="390" width="120" height="80" as="geometry" />
        </mxCell>
        <mxCell id="NkqkLdcEl6JzajYZbMns-28" value="FIM" style="rounded=1;whiteSpace=wrap;html=1;fontSize=13;fontStyle=1" vertex="1" parent="WIyWlLk6GJQsqaUBKTNV-1">
          <mxGeometry x="585" y="400" width="120" height="60" as="geometry" />
        </mxCell>
      </root>
    </mxGraphModel>
  </diagram>
</mxfile>
